<?xml version="1.0" encoding="utf-8"?>
<!-- Generator: Adobe Illustrator 28.1.0, SVG Export Plug-In . SVG Version: 6.00 Build 0)  -->
<svg version="1.1" id="Laag_1" xmlns="http://www.w3.org/2000/svg" xmlns:xlink="http://www.w3.org/1999/xlink" x="0px" y="0px"
	 viewBox="0 0 222 78" style="enable-background:new 0 0 222 78;" xml:space="preserve">
<style type="text/css">
	.st0{fill:#396C72;}
</style>
<g>
	<path class="st0" d="M46.5,60.6c-1.3,0-2.2-0.5-3-1.4c-0.7-0.9-1.1-2.1-1.1-3.7c0-2.7,1.6-7.2,4.7-13.5c3.1-6.3,6.5-12,10.2-17.2
		c3.7-5.2,6.2-7.8,7.6-7.8c1,0,1.9,0.4,2.9,1.3c1,0.9,1.5,1.7,1.5,2.4c0,0.3-0.1,0.5-0.3,0.6C65,25.9,60.9,31.6,57,38.7
		c-4,7-6,11.6-6,13.7c0,0.7,0.3,1,0.9,1c0.8,0,2.3-1,4.5-2.9c2.2-1.9,4.6-4.4,7.2-7.4c0.1-0.1,0.3-0.2,0.6-0.2
		c0.5,0,0.9,0.3,1.3,0.8c0.4,0.5,0.5,1.1,0.4,1.6C57.4,55.5,50.9,60.6,46.5,60.6z"/>
	<path class="st0" d="M82.5,45.2C74,55.5,67.6,60.6,63.2,60.6c-1.3,0-2.2-0.5-3-1.4c-0.7-0.9-1.1-2.1-1.1-3.7c0-2.6,1-6.1,3-10.2
		c2-4.2,4.1-7.8,6.4-10.7c2.2-3,3.8-4.5,4.6-4.5c0.9,0,1.8,0.5,2.9,1.4c1,1,1.6,1.7,1.6,2.3c0,0.2-0.1,0.4-0.3,0.6
		c-2.3,2.8-4.4,6.1-6.4,9.9c-2,3.8-3,6.5-3,8c0,0.7,0.2,1,0.7,1c0.8,0,2.3-1,4.5-2.9c2.2-1.9,4.6-4.4,7.2-7.4
		c0.1-0.1,0.3-0.2,0.6-0.2c0.5,0,0.9,0.3,1.3,0.8C82.5,44.1,82.6,44.7,82.5,45.2z M78.5,25.8c-0.8,0-1.5-0.2-1.9-0.7
		c-0.4-0.5-0.7-1.1-0.7-1.8c0-1.4,0.6-2.9,1.8-4.4c1.2-1.5,2.7-2.3,4.6-2.3c0.9,0,1.7,0.3,2.3,0.9c0.6,0.6,0.9,1.3,0.9,2.1
		c0,1.5-0.7,2.9-2,4.2C82.2,25.1,80.5,25.8,78.5,25.8z"/>
	<path class="st0" d="M113.9,43c0.1-0.1,0.2-0.2,0.4-0.2c0.2,0,0.3,0,0.5,0c0.1,0,0.3,0.1,0.5,0.2c0.2,0.1,0.3,0.3,0.5,0.4
		c0.1,0.2,0.3,0.3,0.3,0.5c0.1,0.2,0.1,0.4,0.2,0.6c0,0.2,0,0.4,0,0.6c-2.4,2.9-4.5,5.4-6.3,7.3c-1.8,1.9-3.9,3.8-6.2,5.5
		c-2.3,1.7-4.3,2.6-6,2.6c-1.2,0-2.2-0.5-3-1.4c-0.8-0.9-1.1-2.1-1.1-3.6c0-2.6,1-6,3.1-10.1c2.1-4.1,4.2-7.6,6.4-10.4
		c-3.2,2.6-7.3,6.7-12.4,12.3c-5.1,5.7-8.1,9.6-9.2,11.7c-0.4,1-1,1.5-2,1.5c-1,0-1.8-0.5-2.6-1.5c-0.8-1-1.1-2.4-1.1-4.1
		c0-2,1-5,2.9-9.1c1.9-4.1,4-7.7,6.2-10.9c2.2-3.2,3.8-4.8,4.6-4.8c0.9,0,1.9,0.4,2.8,1.3c0.9,0.9,1.4,1.7,1.4,2.4
		c0,0.3-0.1,0.5-0.3,0.6c-3.3,4.1-6.3,9.1-9,15.2c3.6-4.5,7.5-8.9,11.8-13.1c4.2-4.2,7.1-6.3,8.6-6.3c1.7,0,3.1,0.6,4.2,1.7
		c1.2,1.1,1.7,2.2,1.7,3.3c0,0.5-0.2,0.9-0.5,1c-2.1,2.7-4,5.7-5.5,9c-1.6,3.2-2.3,5.7-2.3,7.2c0,0.7,0.2,1,0.7,1c0.6,0,1.9-1,4-2.9
		C109,48.4,111.3,46,113.9,43z"/>
	<path class="st0" d="M147.5,43c0.1-0.1,0.2-0.2,0.4-0.2c0.2,0,0.3,0,0.5,0c0.1,0,0.3,0.1,0.5,0.2c0.2,0.1,0.3,0.3,0.5,0.4
		c0.1,0.2,0.3,0.3,0.3,0.5c0.1,0.2,0.1,0.4,0.2,0.6c0,0.2,0,0.4,0,0.6c-2.4,2.9-4.5,5.4-6.3,7.3c-1.8,1.9-3.9,3.8-6.2,5.5
		c-2.3,1.7-4.3,2.6-6,2.6c-1.2,0-2.2-0.5-3-1.4c-0.8-0.9-1.1-2.1-1.1-3.6c0-2.6,1-6,3.1-10.1c2.1-4.1,4.2-7.6,6.4-10.4
		c-3.2,2.6-7.3,6.7-12.4,12.3c-5.1,5.7-8.1,9.6-9.2,11.7c-0.4,1-1,1.5-2,1.5c-1,0-1.8-0.5-2.6-1.5c-0.8-1-1.1-2.4-1.1-4.1
		c0-2,1-5,2.9-9.1c1.9-4.1,4-7.7,6.2-10.9c2.2-3.2,3.8-4.8,4.6-4.8c0.9,0,1.9,0.4,2.8,1.3c0.9,0.9,1.4,1.7,1.4,2.4
		c0,0.3-0.1,0.5-0.3,0.6c-3.3,4.1-6.3,9.1-9,15.2c3.6-4.5,7.5-8.9,11.8-13.1c4.2-4.2,7.1-6.3,8.6-6.3c1.7,0,3.1,0.6,4.2,1.7
		c1.2,1.1,1.7,2.2,1.7,3.3c0,0.5-0.2,0.9-0.5,1c-2.1,2.7-4,5.7-5.5,9c-1.6,3.2-2.3,5.7-2.3,7.2c0,0.7,0.2,1,0.7,1c0.6,0,1.9-1,4-2.9
		C142.7,48.4,145,46,147.5,43z"/>
	<path class="st0" d="M147.2,60.6c-1.3,0-2.2-0.5-3-1.4c-0.7-0.9-1.1-2.1-1.1-3.7c0-2.7,1.6-7.2,4.7-13.5c3.1-6.3,6.5-12,10.2-17.2
		c3.7-5.2,6.2-7.8,7.6-7.8c1,0,1.9,0.4,2.9,1.3c1,0.9,1.5,1.7,1.5,2.4c0,0.3-0.1,0.5-0.3,0.6c-4.1,4.5-8.1,10.2-12.1,17.2
		c-4,7-6,11.6-6,13.7c0,0.7,0.3,1,0.9,1c0.8,0,2.3-1,4.5-2.9c2.2-1.9,4.6-4.4,7.2-7.4c0.1-0.1,0.3-0.2,0.6-0.2
		c0.5,0,0.9,0.3,1.3,0.8c0.4,0.5,0.5,1.1,0.4,1.6C158,55.5,151.6,60.6,147.2,60.6z"/>
	<path class="st0" d="M190.9,42.8c0.5,0,0.9,0.3,1.3,0.8c0.4,0.5,0.5,1.1,0.3,1.6c-3.3,4.2-7,7.8-11.1,10.8c-4.1,3-8.2,4.6-12.3,4.6
		c-2.8,0-5-0.8-6.6-2.3c-1.6-1.5-2.4-3.5-2.4-6.1c0-2.9,1-6.2,2.9-9.8c1.9-3.6,4.5-6.7,7.6-9.2c3.1-2.5,6.1-3.8,9-3.8
		c2.1,0,3.9,0.6,5.2,1.9c1.3,1.3,2,2.9,2,4.8c0,2.9-1.6,5.7-4.7,8.4c-3.2,2.7-6.4,4-9.8,4c-1.2,0-2.3-0.2-3.3-0.6
		c-0.4,1.3-0.6,2.4-0.6,3.3c0,2.3,1.2,3.4,3.7,3.4c2.6,0,5.6-1.1,8.8-3.2c3.2-2.1,6.3-4.9,9.2-8.4C190.5,42.9,190.7,42.8,190.9,42.8
		z M180.9,32.9c-1.3,0-3.1,1.3-5.5,4c-2.3,2.7-4.2,5.6-5.5,8.6h0.6c2.5,0,4.9-1.5,7.4-4.5c2.5-3,3.7-5.4,3.7-7.2
		C181.7,33.2,181.4,32.9,180.9,32.9z"/>
	<path class="st0" d="M22.8,31.6"/>
	<g>
		<path class="st0" d="M42.7,15c-0.8-0.8-1.8-1.2-2.8-1.2c-1,0-2,0.4-3.1,1.1c-1.1,0.8-2.3,2-3.7,3.7c-4.2,5.6-3.8,5.3-7.2,10.6
			c-1,1.7-1.8,2.9-2.5,4c-0.8,0.1-1.4,0.1-1.9,0.2c-5.1,0.5-8.8,1.4-11,2.4c-0.8,0.4-1.4,1-2,1.8c-0.5,0.8-0.8,1.5-0.8,2.1
			c0,0.5,0.2,0.7,0.6,0.7c0.1,0,0.4-0.1,0.7-0.2c2.2-0.8,5.4-1.5,9.4-1.9c0.6-0.1,1.2-0.1,1.8-0.2c-0.6,1-1.4,2.2-2.3,3.6
			c-3.4,5-8.1,12.7-12.8,12.7c-0.7,0-1.3-0.2-1.7-0.6c-0.4-0.4-0.8-0.6-1.1-0.6C1.4,53.4,1,54,1,55.2c0,1.7,0.8,3.4,2.4,5.1
			c2.8,3.2,7.9,3.5,11.4,0.9c1.7-1.2,3.3-3,4.9-5.3c3.5-5.3,5-8.3,7.8-14.4c0.6-1.3,1.1-2.4,1.5-3.4c3.1,0,5.7,0.2,7.6,0.4
			C35.5,40.2,35,41.7,35,43c0,0.8,0.2,1.4,0.6,1.7c0.4,0.4,0.8,0.6,1.3,0.6c0.2,0,0.4,0,0.5-0.1c0.1-0.1,0.2-0.2,0.1-0.4
			c0.1-0.4,0.9-1.3,2.1-2.6c1.3-1.4,2.4-2.4,3.3-3.1c0.3,0,0.4-0.4,0.4-1.1c0-0.9-0.2-1.8-0.7-2.7c-0.4-0.9-1.1-1.5-1.9-1.7
			c-1-0.3-3.9-0.4-8.7-0.4c-0.2,0-0.4,0-0.6,0c0.7-1.4,1.4-2.6,2.3-3.9c0,0,3-4.6,5.6-8.5c1.3-1.9,2.6-2.8,3.9-2.8
			c0.5,0,0.8-0.1,0.8-0.6C44,16.5,43.6,15.8,42.7,15z"/>
		<path class="st0" d="M76.5,4.6c-0.1-1.1-0.3-2-0.8-2.6c-0.4-0.7-0.9-1-1.3-0.9c-0.3,0-0.6,0.3-0.8,0.7c-0.8,1.3-2.5,2.1-5.1,2.3
			c-1.6,0.1-5,0-10.1-0.5c-5.1-0.5-18.2-1.2-22.6-1.2c-7.1,0-12.8,1.5-17.1,4.4c-4.3,2.9-6.4,6.4-6.4,10.4c0,2.5,0.7,4.4,2.1,5.6
			c1.4,1.2,3,1.8,4.8,1.8c1,0,1.8-0.2,2.6-0.5c0.7-0.3,1.1-0.7,1.1-1.1c0-0.3-0.1-0.5-0.4-0.7c-0.9-1.8-1.3-3.8-1.3-5.9
			c0-2.4,0.6-4.4,1.9-6c1.2-1.6,3.2-2.4,5.8-2.4c2.6-0.2,18.1,2,24.7,3.7c6.6,1.7,11.2,2.5,13.8,2.3c3.1-0.2,5.4-1.3,7-3.1
			C76,8.8,76.7,6.8,76.5,4.6z"/>
	</g>
	<path class="st0" d="M219.4,31.5c-1-0.8-2.1-1.2-3-1.2c-0.3,0-0.7,0.2-1.3,0.6c-1,0.8-3.3,3.6-7,8.4c-6.7,8.8-10.9,13.2-12.6,13.2
		c-0.5,0-0.7-0.3-0.7-1c0-1.5,1-4,2.9-7.5c1.9-3.5,4-6.7,6.3-9.5c0.1-0.1,0.2-0.3,0.2-0.6c0-0.7-0.5-1.5-1.5-2.4
		c-1-0.9-1.9-1.3-2.8-1.3c-0.9,0-2.4,1.5-4.7,4.4c-2.2,2.9-4.3,6.4-6.3,10.4c-1.9,4-2.9,7.3-2.9,9.9c0,3.3,1.3,4.9,3.9,4.9
		c4.6,0,10.8-5.6,18.6-16.7c-0.9,2.1-1.7,3.9-2.4,5.4c-0.7,1.5-1.7,3.3-3,5.4c-1.3,2.1-2.6,3.9-3.9,5.4c-1.3,1.5-2.9,3-4.8,4.7
		c-1,0.8-1.9,1.6-3,2.2c0,0-0.8,0.6-2.5,1.4c-0.7,0.3-1.5,0.6-2.3,0.8c-2.6,0.8-5.3,0.9-8,0.4l-5.8-1.1c-2.1-0.4-5.3-1.2-9.5-2.5
		c-3.4-1.1-5.8-1.7-7.1-2c-2.4-0.5-4.7-0.7-6.7-0.4c-2.1,0.2-3.7,0.7-5,1.4c-1.3,0.7-2.4,1.5-3.3,2.5c-0.9,1-1.6,1.8-2,2.6
		c-0.4,0.7-0.6,1.4-0.8,2c-0.2,0.8,0.1,1.2,0.7,1.3c0.2,0,0.5,0,0.9-0.2c0.4-0.2,0.9-0.4,1.4-0.6c0.6-0.2,1.6-0.3,3.1-0.3
		c1.5,0,3.4,0.2,5.5,0.7l16.2,3.4c3.1,0.6,9.8,1.6,14.5,1.5c6.4,0.1,10.2-1.8,11.6-2.6c1.1-0.5,3.7-2.2,4.5-2.9l0,0
		c1.8-1.4,3.5-2.9,5-4.5c2.4-2.5,4.5-5.3,6.2-8.5c1.7-3.1,3.2-6,4.4-8.7c1.2-2.7,2.5-5.5,3.9-8.5c1.4-2.9,2.7-5.2,4-7
		c0.2-0.2,0.3-0.4,0.3-0.6C221,33.1,220.5,32.3,219.4,31.5z"/>
</g>
</svg>
